<svg xmlns="http://www.w3.org/2000/svg" viewBox="-96 -96 192 192"><rect x="-96" y="-96" width="192" height="192" rx="40" fill="#0D1B2A"/><circle cx="0" cy="0" r="88" fill="none" stroke="#C8A96E" stroke-width="2" opacity="0.35"/><circle cx="0" cy="0" r="74" fill="none" stroke="#C8A96E" stroke-width="1.8" opacity="0.5"/><circle cx="0" cy="0" r="60" fill="none" stroke="#C8A96E" stroke-width="1.5" opacity="0.65"/><circle cx="0" cy="0" r="47" fill="none" stroke="#C8A96E" stroke-width="1.2" opacity="0.75"/><circle cx="0" cy="0" r="36" fill="#112234" stroke="#C8A96E" stroke-width="2"/><path d="M -25 -4 C -17 -13, -8 -13, 0 -4 C 8 5, 17 5, 25 -4" fill="none" stroke="#2E6B8A" stroke-width="2.5" stroke-linecap="round"/><path d="M -25 5 C -17 -4, -8 -4, 0 5 C 8 14, 17 14, 25 5" fill="none" stroke="#2E6B8A" stroke-width="1.8" stroke-linecap="round" opacity="0.6"/><path d="M -88 0 C -58 18, -29 27, 0 23 C 29 19, 58 8, 88 0" fill="none" stroke="#2E6B8A" stroke-width="2.5" opacity="0.75" stroke-linecap="round"/><circle cx="0" cy="0" r="5" fill="#C8A96E"/><circle cx="0" cy="0" r="2.5" fill="#0D1B2A"/></svg>